name 900006_16.mot
datacolumns 153
datarows 4
range 0.42500001 0.44999999
endheader

                time	           pelvis_tx	           pelvis_ty	           pelvis_tz	         pelvis_tilt	         pelvis_list	     pelvis_rotation	       hip_flexion_r	     hip_adduction_r	      hip_rotation_r	        knee_angle_r	       ankle_angle_r	    subtalar_angle_r	         mtp_angle_r	       hip_flexion_l	     hip_adduction_l	      hip_rotation_l	        knee_angle_l	       ankle_angle_l	    subtalar_angle_l	         mtp_angle_l	    lumbar_extension	      lumbar_bending	     lumbar_rotation	     ground_force_vx	     ground_force_vy	     ground_force_vz	     ground_force_px	     ground_force_py	     ground_force_pz	     ground_force_vx	     ground_force_vy	     ground_force_vz	     ground_force_px	     ground_force_py	     ground_force_pz	     ground_torque_x	     ground_torque_y	     ground_torque_z	     ground_torque_x	     ground_torque_y	     ground_torque_z	    ground_marker_px	    ground_marker_py	    ground_marker_pz	    ground_marker_px	    ground_marker_py	    ground_marker_pz	    ground_marker_px	    ground_marker_py	    ground_marker_pz	    ground_marker_px	    ground_marker_py	    ground_marker_pz	    ground_marker_px	    ground_marker_py	    ground_marker_pz	    ground_marker_px	    ground_marker_py	    ground_marker_pz	    ground_marker_px	    ground_marker_py	    ground_marker_pz	    ground_marker_px	    ground_marker_py	    ground_marker_pz	    ground_marker_px	    ground_marker_py	    ground_marker_pz	    ground_marker_px	    ground_marker_py	    ground_marker_pz	    ground_marker_px	    ground_marker_py	    ground_marker_pz	    ground_marker_px	    ground_marker_py	    ground_marker_pz	    ground_marker_px	    ground_marker_py	    ground_marker_pz	    ground_marker_px	    ground_marker_py	    ground_marker_pz	    ground_marker_px	    ground_marker_py	    ground_marker_pz	    ground_marker_px	    ground_marker_py	    ground_marker_pz	    ground_marker_px	    ground_marker_py	    ground_marker_pz	    ground_marker_px	    ground_marker_py	    ground_marker_pz	    ground_marker_px	    ground_marker_py	    ground_marker_pz	    ground_marker_px	    ground_marker_py	    ground_marker_pz	    ground_marker_px	    ground_marker_py	    ground_marker_pz	    ground_marker_px	    ground_marker_py	    ground_marker_pz	    ground_marker_px	    ground_marker_py	    ground_marker_pz	    ground_marker_px	    ground_marker_py	    ground_marker_pz	    ground_marker_px	    ground_marker_py	    ground_marker_pz	    ground_marker_px	    ground_marker_py	    ground_marker_pz	    ground_marker_px	    ground_marker_py	    ground_marker_pz	    ground_marker_px	    ground_marker_py	    ground_marker_pz	    ground_marker_px	    ground_marker_py	    ground_marker_pz	    ground_marker_px	    ground_marker_py	    ground_marker_pz	    ground_marker_px	    ground_marker_py	    ground_marker_pz	    ground_marker_px	    ground_marker_py	    ground_marker_pz	    ground_marker_px	    ground_marker_py	    ground_marker_pz	    ground_marker_px	    ground_marker_py	    ground_marker_pz	    ground_marker_px	    ground_marker_py	    ground_marker_pz	    ground_marker_px	    ground_marker_py	    ground_marker_pz	    ground_marker_px	    ground_marker_py	    ground_marker_pz	
          0.42500001	          1.62930131	          0.84291935	         -0.25354597	          3.71499634	         -3.32069111	          1.12600660	         18.80016708	         -0.75267774	         -5.27675247	        -38.10891724	         10.66529751	          0.00000000	          0.00000000	         -4.34582949	          1.34975004	         -6.10925198	         -9.87975121	          9.91498375	          0.00000000	          0.00000000	         -4.43754959	          3.06938148	         -5.48931789	          0.00000000	          0.00000000	          0.00000000	          1.89323645	          0.00000000	         -0.19946916	        -11.80247031	        427.81183749	          6.93487969	          1.58338489	          0.00000000	         -0.27330618	          0.00000000	          0.00000000	          0.00000000	          0.00000000	         -0.47378833	          0.00000000	          1.59599686	          0.76955736	         -0.25675815	          1.58970368	          0.76939869	         -0.19967662	          1.60229003	          0.76971602	         -0.31383970	          1.67378712	          0.42482659	         -0.16132811	          1.52431202	          0.42672509	         -0.28794110	          1.60162210	          0.08650008	         -0.15342399	          1.48679781	          0.06725059	         -0.26242265	          1.62930131	          0.84291935	         -0.25354597	          1.63236892	          0.84893280	         -0.14336844	          1.62623358	          0.83690596	         -0.36372349	          1.45316851	          0.87081879	         -0.21390367	          1.45643377	          0.86737496	         -0.26701513	          1.69392002	          0.43390605	         -0.10173882	          1.54416525	          0.41052884	         -0.34540641	          1.69051063	          0.42258593	         -0.21981089	          1.55584443	          0.42104512	         -0.22962500	          1.59259951	          0.08949216	         -0.11714879	          1.47660136	          0.06636640	         -0.29745829	          1.60505939	          0.08014030	         -0.18648520	          1.48748815	          0.07158189	         -0.22913693	          1.62523150	          1.19477868	         -0.26666954	          1.63512874	          1.09308529	         -0.26835325	          1.51607299	          1.26403892	         -0.26891184	          1.67717910	          0.06493034	         -0.13937129	          1.57248378	          0.04535517	         -0.27568132	          1.76611686	          0.60548335	         -0.13830422	          1.66155720	          0.55408925	         -0.38002974	          1.70310795	          0.62441140	         -0.10562301	          1.64959276	          0.60343301	         -0.31496388	          1.71209860	          0.56732416	         -0.10681828	          1.63743365	          0.54807222	         -0.30347443	          1.74033654	          0.17993547	         -0.11944585	          1.48391128	          0.16045317	         -0.39410982	          1.66405046	          0.18122502	         -0.14498681	          1.49183714	          0.15685055	         -0.31691280	          1.62420988	          1.19517207	         -0.21027073	          1.63148272	          1.19500422	         -0.31654117	
          0.43333334	          1.63529253	          0.84267390	         -0.25380728	          3.70736599	         -3.38238764	          1.04832482	         19.24480057	         -0.61277598	         -5.49790812	        -36.38315201	         10.03446293	          0.00000000	          0.00000000	         -4.86975002	          1.31231427	         -6.17944622	         -9.73814011	         10.07591248	          0.00000000	          0.00000000	         -4.53715229	          3.05969477	         -5.56542253	          0.00000000	          0.00000000	          0.00000000	          1.89545288	          0.00000000	         -0.20090376	        -10.85134708	        427.79928033	          7.11581082	          1.58621509	          0.00000000	         -0.27369696	          0.00000000	          0.00000000	          0.00000000	          0.00000000	         -0.41814038	          0.00000000	          1.60197973	          0.76934814	         -0.25700647	          1.59561658	          0.76924741	         -0.19993256	          1.60834289	          0.76944894	         -0.31408039	          1.68409610	          0.42452332	         -0.16199034	          1.52837157	          0.42710650	         -0.28791851	          1.62335861	          0.08381716	         -0.15524827	          1.48725045	          0.06757434	         -0.26242208	          1.63529253	          0.84267390	         -0.25380728	          1.63823104	          0.84882790	         -0.14360029	          1.63235402	          0.83651984	         -0.36401427	          1.45944262	          0.87060446	         -0.21444972	          1.46238172	          0.86711508	         -0.26739970	          1.70225513	          0.43433589	         -0.10240202	          1.54701960	          0.41042873	         -0.34537303	          1.70144117	          0.42285934	         -0.22081336	          1.56004870	          0.41931641	         -0.23202780	          1.61423469	          0.08634231	         -0.11896291	          1.47700012	          0.06677478	         -0.29744408	          1.62711811	          0.07796472	         -0.18838324	          1.48820090	          0.07196701	         -0.22917712	          1.63178051	          1.19431627	         -0.26675704	          1.64150107	          1.09260321	         -0.26826394	          1.52272260	          1.26375616	         -0.26867405	          1.69986188	          0.06413563	         -0.14083554	          1.57268500	          0.04536738	         -0.27564251	          1.77264357	          0.60626429	         -0.13840067	          1.66597009	          0.55321342	         -0.38023776	          1.70875740	          0.62469459	         -0.10606534	          1.65454781	          0.60227412	         -0.31481576	          1.71904004	          0.56768990	         -0.10733335	          1.64220989	          0.54717404	         -0.30418092	          1.75851130	          0.18264389	         -0.12096076	          1.48482084	          0.16076052	         -0.39409605	          1.68239951	          0.18106543	         -0.14635515	          1.49301159	          0.15720366	         -0.31701800	          1.63059855	          1.19479632	         -0.21016233	          1.63817620	          1.19445598	         -0.31681189	
          0.44166666	          1.64132190	          0.84239018	         -0.25402874	          3.69245911	         -3.42065763	          0.97511578	         19.64298058	         -0.48338896	         -5.69489002	        -34.58520508	          9.29281616	          0.00000000	          0.00000000	         -5.39876270	          1.29100931	         -6.23461676	         -9.58242512	         10.24414635	          0.00000000	          0.00000000	         -4.61189222	          3.34025931	         -5.45871544	          0.00000000	          0.00000000	          0.00000000	          1.89798938	          0.00000000	         -0.20251300	         -9.62091774	        427.69644298	          7.22224916	          1.58867236	          0.00000000	         -0.27404108	          0.00000000	          0.00000000	          0.00000000	          0.00000000	         -0.37005432	          0.00000000	          1.60798931	          0.76910746	         -0.25726163	          1.60156214	          0.76903909	         -0.20019485	          1.61441660	          0.76917583	         -0.31432840	          1.69286335	          0.42438430	         -0.16275151	          1.53015721	          0.42847773	         -0.28789669	          1.64501143	          0.08154206	         -0.15710413	          1.48768246	          0.06792340	         -0.26246026	          1.64132190	          0.84239018	         -0.25402874	          1.64413404	          0.84863901	         -0.14378490	          1.63850975	          0.83614135	         -0.36427256	          1.46563351	          0.87041181	         -0.21489634	          1.46846974	          0.86679614	         -0.26776496	          1.71029603	          0.43465886	         -0.10311940	          1.54984403	          0.41036826	         -0.34539133	          1.71073139	          0.42372701	         -0.22278573	          1.56129956	          0.42005810	         -0.23255800	          1.63585019	          0.08358812	         -0.12079801	          1.47735584	          0.06721277	         -0.29746175	          1.64934671	          0.07523175	         -0.19003700	          1.48889065	          0.07226093	         -0.22924629	          1.63834906	          1.19372177	         -0.26725313	          1.64790189	          1.09199977	         -0.26917604	          1.52916253	          1.26347959	         -0.26843524	          1.72247910	          0.06363191	         -0.14240888	          1.57291234	          0.04541098	         -0.27563217	          1.77899146	          0.60687035	         -0.13857692	          1.67034984	          0.55229896	         -0.38041604	          1.71414959	          0.62476128	         -0.10627149	          1.65972674	          0.60133010	         -0.31512973	          1.72538602	          0.56772405	         -0.10797177	          1.64613843	          0.54599983	         -0.30443704	          1.77642226	          0.18565173	         -0.12263361	          1.48562813	          0.16112240	         -0.39409006	          1.70055139	          0.18009177	         -0.14789437	          1.49415648	          0.15763558	         -0.31699860	          1.63720024	          1.19397521	         -0.21065459	          1.64471626	          1.19405282	         -0.31731239	
          0.44999999	          1.64739382	          0.84205616	         -0.25419924	          3.66322613	         -3.44024920	          0.90238887	         20.00209045	         -0.35302791	         -5.87277889	        -32.71265793	          8.45478535	          0.00000000	          0.00000000	         -5.92242146	          1.27850306	         -6.28796148	         -9.41988087	         10.42469120	          0.00000000	          0.00000000	         -4.72752619	          3.53535128	         -5.33691978	          0.00000000	          0.00000000	          0.00000000	          1.90083093	          0.00000000	         -0.20418958	         -8.16872175	        427.30534242	          7.25220373	          1.59082324	          0.00000000	         -0.27438300	          0.00000000	          0.00000000	          0.00000000	          0.00000000	         -0.33478174	          0.00000000	          1.61401320	          0.76881468	         -0.25748405	          1.60752273	          0.76876676	         -0.20042439	          1.62050354	          0.76886266	         -0.31454369	          1.69672072	          0.42514208	         -0.16356565	          1.53150260	          0.43008858	         -0.28794485	          1.66655028	          0.07966781	         -0.15894981	          1.48808384	          0.06828623	         -0.26253042	          1.64739382	          0.84205616	         -0.25419924	          1.65007687	          0.84836352	         -0.14391632	          1.64471078	          0.83574879	         -0.36448216	          1.47170913	          0.87024021	         -0.21523382	          1.47467911	          0.86644852	         -0.26811314	          1.71802640	          0.43487391	         -0.10391212	          1.55264640	          0.41034880	         -0.34546036	          1.71445131	          0.42544588	         -0.22538160	          1.56228673	          0.42189673	         -0.23200840	          1.65739667	          0.08123776	         -0.12261806	          1.47765934	          0.06766927	         -0.29750466	          1.67117858	          0.07316238	         -0.19173446	          1.48936510	          0.07244655	         -0.22929145	          1.64487600	          1.19308949	         -0.26794681	          1.65416932	          1.09134948	         -0.27016756	          1.53574288	          1.26318872	         -0.26852506	          1.74498451	          0.06344496	         -0.14407285	          1.57315588	          0.04547408	         -0.27565831	          1.78514373	          0.60728133	         -0.13882864	          1.67468309	          0.55135280	         -0.38057426	          1.72050261	          0.62482321	         -0.10608666	          1.66512287	          0.60061657	         -0.31581438	          1.73105526	          0.56759822	         -0.10860404	          1.65001690	          0.54491740	         -0.30459577	          1.79400396	          0.18893842	         -0.12438464	          1.48633409	          0.16153553	         -0.39408919	          1.71845102	          0.17922880	         -0.14906642	          1.49502766	          0.15787458	         -0.31688750	          1.64378250	          1.19318473	         -0.21151012	          1.65119445	          1.19354701	         -0.31784660	
